# xmcd
#
# Track frame offsets: 
#        150
#        16947
#        34048
#
# Disc length: 821 seconds
#
# Revision: 0
# Processed by: cddbd v1.5.2PL0 Copyright (c) Steve Scherf et al.
# Submitted via: ExactAudioCopyFreeDBPlugin 1.0
#
DISCID=17033303
DTITLE=King King - Outtakes and Rarities
DYEAR=2017
DGENRE=Bluesrock
TTITLE0=Give Me All Your Love
TTITLE1=Broken Heal (Alternate Version)
TTITLE2=(If Loving You Is Wrong) I Don't Want To Be Right
EXTD=
EXTT0=
EXTT1=
EXTT2=
PLAYORDER=
